# xmcd
#
# Track frame offsets: 
#        150
#        13066
#        23995
#        35488
#        47483
#        58719
#        70372
#        83169
#        96826
#        111428
#        126129
#        138121
#        148446
#        159913
#        172473
#        188711
#        201326
#        212338
#        227022
#        243453
#        262380
#        275392
#        291299
#
# Disc length: 4050 seconds
#
# Revision: 0
# Processed by: cddbd v1.5.2PL0 Copyright (c) Steve Scherf et al.
# Submitted via: ExactAudioCopy v0.99pb5
#
DISCID=630fd017
DTITLE=Various Artist - The Philly Sound You Never Heard
DYEAR=2009
DGENRE=R&B
TTITLE0=Orientals/Soul Ain't You Thrilled
TTITLE1=Orientals/Do You Do Lovin'
TTITLE2=Donnie Elbert/Run Little Girl
TTITLE3=Orientals/Oriental Flower
TTITLE4=Orientals/Chinese Monkey
TTITLE5=Johnny Newbag/Little Samson
TTITLE6=Johnny Newbag/Sweet Thing
TTITLE7=Johnny Newbag/Got to Get You Back
TTITLE8=Johnny Newbag/The Poorer The Man, The Richer His Heart
TTITLE9=Jesse Fountain/When It Rains Love, It Pours Love
TTITLE10=Bobby Wells/Look for The Beauty Inside
TTITLE11=Don Gardner/Your Love Is Driving Me Crazy
TTITLE12=Tyrone Chestnut/The Bump
TTITLE13=Essau Isaacs/Having A Ball
TTITLE14=Essau Isaacs/Baby Man
TTITLE15=Lou Jackson/I Can't Believe You Said You Love Me
TTITLE16=Billy Harner/I Don't Mind Doin' It
TTITLE17=Thoughts/Plain As The Nose on Your Face
TTITLE18=Prince Johnny Robinson/Make Love to Me Right Now
TTITLE19=Delights/Face The Music
TTITLE20=Tyrone Chestnut/Miss Black America
TTITLE21=Destinations/I Can't Leave You
TTITLE22=Unknown Track
EXTD=
EXTT0=
EXTT1=
EXTT2=
EXTT3=
EXTT4=
EXTT5=
EXTT6=
EXTT7=
EXTT8=
EXTT9=
EXTT10=
EXTT11=
EXTT12=
EXTT13=
EXTT14=
EXTT15=
EXTT16=
EXTT17=
EXTT18=
EXTT19=
EXTT20=
EXTT21=
EXTT22=
PLAYORDER=
